<svg width="35" height="35" viewBox="0 0 35 35" fill="none" xmlns="http://www.w3.org/2000/svg">
<g clip-path="url(#clip0)">
<path d="M25.8269 3.4807C22.4171 3.4807 19.24 7.57378 17.6306 13.9576C15.1178 13.3206 12.3988 12.9701 9.77027 12.9701C6.7615 12.9701 4.22847 13.9842 2.4451 15.9017C0.868595 17.5977 0 19.8714 0 22.3026C0 26.6342 2.86959 31.2953 9.17117 31.2953C9.26163 31.2953 9.35147 31.3004 9.44067 31.3055C9.55138 31.3112 9.66145 31.3168 9.77027 31.3168C13.3193 31.3168 17.0341 30.6804 20.1807 29.5569C21.8319 30.8417 23.9056 31.5193 25.9996 31.5193C27.361 31.5193 28.7288 31.2359 29.989 30.6545C33.1603 29.1906 34.9791 26.1635 34.9791 22.3513C34.9791 22.2608 34.9842 22.171 34.9892 22.0818C34.9949 21.9711 35.0006 21.861 35.0006 21.7522C35 13.1099 31.2327 3.4807 25.8269 3.4807ZM9.50709 30.0421C9.39575 30.0358 9.28314 30.0301 9.17117 30.0301C3.73945 30.0301 1.26525 26.0243 1.26525 22.3026C1.26525 20.1915 2.01365 18.224 3.37189 16.7633C4.90981 15.1096 7.1221 14.2353 9.77027 14.2353C12.4766 14.2353 15.1362 14.6041 17.5199 15.2336L17.9178 15.3443C18.5593 15.5227 19.1717 15.7195 19.7563 15.9295C19.8613 15.9675 19.9644 16.0067 20.0675 16.0459C20.2016 16.0965 20.3338 16.1478 20.4648 16.1996C20.6242 16.2635 20.7836 16.3268 20.9393 16.3932C20.9494 16.3976 20.9595 16.4021 20.9703 16.4065C22.9675 17.2612 24.5794 18.3132 25.5941 19.4614C25.6302 19.5026 25.6681 19.5437 25.7029 19.5854C25.7706 19.6658 25.8339 19.7468 25.8959 19.8284C25.9484 19.898 25.9984 19.9682 26.0465 20.0384C26.092 20.1042 26.1388 20.1706 26.1799 20.237C26.2641 20.3731 26.3419 20.5097 26.4089 20.647C26.426 20.6818 26.438 20.7166 26.4539 20.7514C26.5057 20.8659 26.5526 20.9804 26.5918 21.0955C26.6082 21.1436 26.6221 21.1923 26.6367 21.2404C26.6683 21.3473 26.6943 21.4542 26.7145 21.5618C26.7234 21.6067 26.7328 21.651 26.7398 21.6959C26.762 21.8452 26.7765 21.9945 26.7765 22.1438C26.7765 22.2773 26.7664 22.4107 26.7487 22.5449C26.7423 22.5936 26.7303 22.6417 26.7215 22.6904C26.7063 22.7739 26.6911 22.8574 26.6696 22.9415C26.6531 23.0054 26.631 23.0687 26.6108 23.1319C26.5892 23.1977 26.5684 23.2635 26.5431 23.33C26.5133 23.4059 26.4798 23.4818 26.445 23.5571C26.4222 23.607 26.3988 23.6564 26.3741 23.7064C26.3286 23.7956 26.2799 23.8841 26.2274 23.9727C26.209 24.0031 26.1907 24.0334 26.1717 24.0638C26.1053 24.1694 26.0363 24.2745 25.9598 24.3788C25.9566 24.3826 25.9535 24.3864 25.9509 24.3909C24.9862 25.7023 23.2332 26.9087 21 27.8684C20.9785 27.8779 20.9576 27.8874 20.9361 27.8962C20.8191 27.9462 20.6976 27.9937 20.578 28.0424C20.442 28.0974 20.306 28.1525 20.1656 28.2056C17.2017 29.3399 13.5312 30.0522 9.7709 30.0522C9.6836 30.051 9.59566 30.0465 9.50709 30.0421ZM33.7259 22.0147C33.7196 22.1261 33.7139 22.2387 33.7139 22.3507C33.7139 25.6492 32.1633 28.2568 29.4582 29.5056C26.922 30.6754 23.8867 30.4558 21.582 29.0071C25.3702 27.38 28.0405 24.9893 28.0405 22.1431C28.0405 21.9502 28.0247 21.7604 28.0006 21.5719C27.9981 21.551 27.993 21.5301 27.9899 21.5093C27.5369 18.312 23.7013 15.7492 18.8434 14.2935C20.2832 8.55752 23.0529 4.74595 25.8257 4.74595C29.8903 4.74595 33.7335 13.0099 33.7335 21.7516C33.7347 21.8389 33.7297 21.9268 33.7259 22.0147Z" fill="black"/>
<path d="M5.53486 16.5678C3.86536 17.7451 2.84873 19.6512 2.74498 21.7977C2.72853 22.1469 2.9974 22.4436 3.34661 22.4601C3.35673 22.4607 3.36685 22.4607 3.3776 22.4607C3.7129 22.4607 3.99252 22.1969 4.00896 21.8585C4.09374 20.1048 4.91552 18.553 6.26364 17.6022C6.54896 17.401 6.61791 17.0062 6.4161 16.7203C6.2143 16.435 5.82017 16.3673 5.53486 16.5678Z" fill="black"/>
<path d="M9.9164 15.283C9.10664 15.283 8.3361 15.3842 7.62629 15.5841C7.28974 15.6783 7.09362 16.0282 7.18852 16.3641C7.26696 16.6431 7.52065 16.8253 7.7971 16.8253C7.85404 16.8253 7.91224 16.8177 7.96854 16.8019C8.56701 16.633 9.22241 16.5482 9.9164 16.5482C10.2662 16.5482 10.549 16.2654 10.549 15.9156C10.549 15.5657 10.2662 15.283 9.9164 15.283Z" fill="black"/>
<path d="M28.5921 10.1543C29.1735 11.0317 29.6353 12.0395 29.9649 13.1498C30.0465 13.4249 30.2983 13.6027 30.5716 13.6027C30.6311 13.6027 30.6912 13.5945 30.7513 13.5768C31.0859 13.4775 31.2776 13.1251 31.1783 12.7904C30.8133 11.5593 30.2971 10.4371 29.6461 9.45522C29.4525 9.16421 29.0609 9.08324 28.7693 9.27809C28.4789 9.4704 28.3992 9.86263 28.5921 10.1543Z" fill="black"/>
<path d="M25.7225 6.04789C25.3948 5.93212 25.0349 6.10293 24.9172 6.42999C24.7989 6.75833 24.9691 7.12019 25.2968 7.23912C25.3044 7.24229 26.0661 7.52633 26.996 8.32787C27.1156 8.43099 27.263 8.4816 27.4091 8.4816C27.5863 8.4816 27.7634 8.40758 27.888 8.26208C28.1164 7.99701 28.0867 7.59782 27.8222 7.37008C26.6987 6.40153 25.7624 6.06244 25.7225 6.04789Z" fill="black"/>
</g>
<defs>
<clipPath id="clip0">
<rect width="35" height="35" fill="white"/>
</clipPath>
</defs>
</svg>
