<svg width="34" height="34" viewBox="0 0 34 34" fill="none" xmlns="http://www.w3.org/2000/svg">
<path d="M3.43675 10.072C3.43747 10.0646 3.43877 10.0573 3.43979 10.05C3.44109 10.0405 3.44232 10.0309 3.44413 10.0215C3.44579 10.0126 3.44803 10.0039 3.4502 9.9952C3.45208 9.98754 3.45389 9.97987 3.45606 9.97235C3.45874 9.96323 3.46178 9.95426 3.46489 9.94529C3.46735 9.93834 3.46981 9.9314 3.47248 9.92446C3.47596 9.91563 3.47979 9.90695 3.4837 9.89841C3.48681 9.89154 3.49006 9.88481 3.49346 9.87809C3.49759 9.86998 3.50192 9.86195 3.50648 9.85407C3.51046 9.84712 3.51466 9.84032 3.51893 9.83352C3.52356 9.82622 3.52826 9.81898 3.53325 9.81197C3.53817 9.80502 3.5433 9.79829 3.54858 9.79149C3.55365 9.78498 3.55871 9.77847 3.56407 9.77225C3.56602 9.76994 3.56776 9.76748 3.56971 9.76523L9.36881 3.19325V0.542553C9.36881 0.242847 9.61165 0 9.91136 0H24.0886C24.3883 0 24.6312 0.242847 24.6312 0.542553V3.19325L30.4301 9.76523C30.4321 9.76741 30.4338 9.76979 30.4356 9.77203C30.4412 9.77847 30.4464 9.7852 30.4516 9.79193C30.4567 9.79844 30.4617 9.80502 30.4664 9.81168C30.4715 9.81898 30.4764 9.82644 30.4812 9.83396C30.4853 9.84047 30.4894 9.84705 30.4932 9.85378C30.4979 9.86188 30.5023 9.87006 30.5066 9.87845C30.5099 9.88496 30.513 9.89154 30.5161 9.89812C30.5201 9.90688 30.524 9.9157 30.5275 9.92467C30.5302 9.9314 30.5326 9.9382 30.535 9.945C30.5381 9.95404 30.5413 9.96316 30.5439 9.97242C30.5461 9.97987 30.5479 9.98739 30.5497 9.99499C30.5519 10.0038 30.5541 10.0126 30.5558 10.0215C30.5576 10.0309 30.5588 10.0403 30.5601 10.0498C30.5612 10.0573 30.5625 10.0646 30.5632 10.0721C30.5648 10.0893 30.5658 10.1068 30.5658 10.1242V33.4574C30.5658 33.7572 30.3229 34 30.0232 34H3.97655C3.67685 34 3.434 33.7572 3.434 33.4574V10.1242C3.43414 10.1067 3.43508 10.0893 3.43675 10.072ZM5.179 9.58163H14.6437L9.91136 4.21839L5.179 9.58163ZM10.4539 1.08511V2.85586H19.7482C20.0478 2.85586 20.2908 3.0987 20.2908 3.39841C20.2908 3.69812 20.0478 3.94096 19.7482 3.94096H11.1137L16.0908 9.58171H28.821L23.8438 3.94096H21.9184C21.6188 3.94096 21.3759 3.69812 21.3759 3.39841C21.3759 3.0987 21.6188 2.85586 21.9184 2.85586H23.5461V1.08511H10.4539ZM29.4807 15.0072H16.3886V28.5745H29.4807V15.0072ZM16.3886 13.9221H29.4807V10.6667H16.3886V13.9221ZM29.4807 29.6596H16.3886V32.9149H29.4807V29.6596ZM15.3035 32.9149V10.6667H4.51925V13.9221H13.6758C13.9755 13.9221 14.2184 14.1649 14.2184 14.4646C14.2184 14.7643 13.9755 15.0072 13.6758 15.0072H4.51925V28.5745H13.6758C13.9755 28.5745 14.2184 28.8173 14.2184 29.117C14.2184 29.4167 13.9755 29.6596 13.6758 29.6596H4.51925V32.9149H15.3035Z" fill="black"/>
<path d="M19.8363 20.5984L22.5001 17.0335C22.6025 16.8964 22.7636 16.8157 22.9347 16.8157C23.1058 16.8157 23.2669 16.8964 23.3693 17.0335L26.0336 20.5992C26.5327 21.2694 26.7966 22.0664 26.7966 22.904C26.7966 25.0335 25.0641 26.766 22.9347 26.766C20.8053 26.766 19.0728 25.0335 19.0728 22.904C19.0728 22.0664 19.3366 21.2694 19.8363 20.5984ZM22.9347 25.6808C24.4658 25.6808 25.7115 24.4351 25.7115 22.904C25.7115 22.3016 25.5219 21.7287 25.1638 21.2479L22.9347 18.2647L20.706 21.2472C20.3474 21.7287 20.1579 22.3016 20.1579 22.9039C20.1579 24.4351 21.4036 25.6808 22.9347 25.6808Z" fill="black"/>
</svg>
