<svg width="35" height="35" viewBox="0 0 35 35" fill="none" xmlns="http://www.w3.org/2000/svg">
<path d="M20.5238 7.78619H14.4762C14.1631 7.78619 13.9093 7.53235 13.9093 7.21924C13.9093 6.90613 14.1631 6.65228 14.4762 6.65228H20.5238C20.8369 6.65228 21.0907 6.90613 21.0907 7.21924C21.0907 7.53235 20.8369 7.78619 20.5238 7.78619Z" fill="black"/>
<path d="M7.03917 29.8967L11.9355 7.80409C11.9364 7.80009 11.9374 7.79616 11.9383 7.79215C12.0423 7.36671 12.095 6.92887 12.095 6.4908V6.00972C12.095 5.65541 11.8068 5.36717 11.4525 5.36717C11.1394 5.36717 10.8855 5.11333 10.8855 4.80022C10.8855 4.48711 11.1394 4.23326 11.4525 4.23326H11.9104L11.5681 3.0354C11.361 2.31038 11.5025 1.5493 11.9566 0.947268C12.4107 0.345238 13.1036 0 13.8577 0H21.1423C21.8963 0 22.5892 0.345238 23.0433 0.947268C23.4974 1.5493 23.639 2.31038 23.4319 3.0354L23.0897 4.23326H23.5475C23.8606 4.23326 24.1145 4.48711 24.1145 4.80022C24.1145 5.11333 23.8606 5.36717 23.5475 5.36717C23.1932 5.36717 22.905 5.65541 22.905 6.00972V6.4908C22.905 6.92887 22.9577 7.36671 23.0618 7.79215C23.0627 7.79616 23.0636 7.80009 23.0646 7.80409L27.9608 29.8967C28.2376 31.1453 27.9372 32.4334 27.1366 33.4307C26.3362 34.428 25.1437 35 23.8648 35H11.1352C9.85633 35 8.66376 34.428 7.86329 33.4307C7.06283 32.4334 6.76242 31.1453 7.03917 29.8967ZM22.3416 2.72388C22.4502 2.34409 22.376 1.94549 22.1382 1.63011C21.9003 1.31473 21.5373 1.13391 21.1424 1.13391H19.8812V1.17171C19.8812 1.48482 19.6274 1.73866 19.3143 1.73866C19.0012 1.73866 18.7473 1.48482 18.7473 1.17171V1.13391H16.2527V1.17171C16.2527 1.48482 15.9989 1.73866 15.6858 1.73866C15.3726 1.73866 15.1188 1.48482 15.1188 1.17171V1.13391H13.8577C13.4627 1.13391 13.0998 1.31481 12.8619 1.63011C12.624 1.94541 12.5498 2.34409 12.6584 2.72388L13.0896 4.23326H21.9104L22.3416 2.72388ZM8.74759 32.7209C9.33178 33.4487 10.202 33.8661 11.1352 33.8661H23.8648C24.798 33.8661 25.6682 33.4487 26.2523 32.7209C26.8365 31.9931 27.0557 31.0532 26.8538 30.1421L21.9587 8.05537C21.8342 7.54375 21.7711 7.01739 21.7711 6.4908V6.00972C21.7711 5.78324 21.8136 5.56651 21.8913 5.36717H13.1088C13.1864 5.56651 13.229 5.78324 13.229 6.00972V6.4908C13.229 7.01739 13.1658 7.54375 13.0413 8.05529L8.14617 30.142C7.94426 31.0532 8.16348 31.9932 8.74759 32.7209Z" fill="black"/>
<path d="M13.906 12.7132C14.2117 12.7809 14.4046 13.0837 14.3368 13.3894L12.8625 20.0417C12.8039 20.3061 12.5696 20.486 12.3095 20.486C12.2689 20.486 12.2277 20.4817 12.1863 20.4725C11.8806 20.4048 11.6877 20.102 11.7555 19.7963L13.2298 13.144C13.2975 12.8384 13.5998 12.6453 13.906 12.7132Z" fill="black"/>
<path d="M14.7101 9.08479C15.0158 9.15252 15.2088 9.45527 15.141 9.76097L14.873 10.97C14.8144 11.2344 14.5801 11.4144 14.32 11.4144C14.2794 11.4144 14.2381 11.41 14.1968 11.4008C13.8911 11.3331 13.6982 11.0303 13.766 10.7246L14.034 9.5156C14.1017 9.2099 14.4046 9.01691 14.7101 9.08479Z" fill="black"/>
<path d="M11.2193 22.2153C11.2768 21.9558 11.507 21.7711 11.7728 21.7711H23.2272C23.4931 21.7711 23.7233 21.9558 23.7807 22.2153L25.5991 30.4201C25.7596 31.144 25.4494 31.6683 25.2502 31.9165C25.051 32.1647 24.6062 32.5811 23.8648 32.5811H11.1352C10.3937 32.5811 9.94894 32.1647 9.74975 31.9165C9.55056 31.6683 9.24032 31.1439 9.4008 30.4201L11.2193 22.2153ZM10.6341 31.2068C10.7221 31.3164 10.8805 31.4471 11.1352 31.4471H23.8648C24.1195 31.4471 24.2778 31.3164 24.3658 31.2068C24.4538 31.0971 24.5472 30.9141 24.4921 30.6655L22.7722 22.905H12.2279L10.508 30.6655C10.4528 30.9141 10.5461 31.0971 10.6341 31.2068Z" fill="black"/>
<path d="M17.5 1.81427C17.6489 1.81427 17.7956 1.87475 17.9007 1.98058C18.0065 2.08565 18.067 2.23155 18.067 2.38122C18.067 2.53014 18.0065 2.6768 17.9007 2.78187C17.7956 2.8877 17.6489 2.94818 17.5 2.94818C17.3511 2.94818 17.2044 2.8877 17.0994 2.78187C16.9935 2.6768 16.9331 2.53014 16.9331 2.38122C16.9331 2.2323 16.9935 2.08565 17.0994 1.98058C17.2044 1.87475 17.3511 1.81427 17.5 1.81427Z" fill="black"/>
</svg>
