<svg width="35" height="35" viewBox="0 0 35 35" fill="none" xmlns="http://www.w3.org/2000/svg">
<g clip-path="url(#clip0)">
<path d="M34.3721 28.6217C34.3364 28.6059 30.8087 27.0152 26.2647 24.0683C26.1163 23.8038 25.9532 23.5441 25.7703 23.2924C25.6351 23.1063 25.4904 22.9251 25.3368 22.7492C25.5644 22.6972 25.7879 22.6356 26.0065 22.5644C30.3448 21.155 32.472 16.1621 32.5604 15.9502C32.7624 15.4664 32.5809 14.9079 32.1331 14.6352C31.9624 14.5312 28.4086 12.4036 24.6278 12.7872C26.5253 10.3434 28.0426 7.83842 29.1566 5.30546C29.1667 5.28268 29.176 5.25948 29.1842 5.23599C29.8408 3.40267 29.7603 2.33094 28.9312 1.86306C27.8747 1.26657 26.8 2.22723 25.1857 4.20798C24.8155 4.66228 24.8836 5.33064 25.338 5.7009C25.7083 6.00268 26.2209 6.01287 26.5979 5.76075C25.4941 7.96504 24.059 10.1483 22.3127 12.2859C22.0852 7.91764 18.2278 4.55461 18.0589 4.40959C17.6612 4.06806 17.0738 4.06806 16.6762 4.40959C16.5111 4.5515 12.8261 7.76654 12.4455 11.9889C10.8077 9.94636 9.45411 7.86317 8.4012 5.76061C8.77853 6.01358 9.29112 6.00297 9.66152 5.70104C10.1158 5.33078 10.184 4.66242 9.8139 4.20812C8.20001 2.22709 7.12517 1.26756 6.06844 1.86306C5.23936 2.33108 5.15871 3.40281 5.81505 5.23613C5.8234 5.25962 5.83273 5.28282 5.84278 5.3056C6.96247 7.85101 8.48892 10.368 10.3998 12.8235C6.51185 12.2943 2.77743 14.529 2.60227 14.6355C2.15448 14.9083 1.97296 15.467 2.175 15.9507C2.26342 16.1625 4.39117 21.1553 8.72944 22.5646C8.94817 22.6358 9.17157 22.6973 9.39936 22.7494C9.24571 22.9252 9.10126 23.1063 8.966 23.2925C8.72322 23.6264 8.51354 23.9737 8.33088 24.329C3.99403 27.1022 0.66128 28.6067 0.627466 28.6219C0.0928049 28.8614 -0.146583 29.489 0.0928049 30.0238C0.269233 30.4178 0.656328 30.6517 1.06196 30.6517C1.20684 30.6517 1.35412 30.6219 1.49503 30.5589C1.61501 30.5051 3.98385 29.4372 7.37333 27.4153C6.98482 30.0331 7.51637 32.3498 7.55103 32.4959C7.66535 32.9775 8.09546 33.3123 8.58286 33.3123C8.61159 33.3123 8.64059 33.3111 8.66973 33.3089C8.89851 33.2902 14.304 32.8096 16.9855 29.1187C17.1206 28.9328 17.2481 28.7394 17.3679 28.539C17.4878 28.7394 17.6152 28.9327 17.7503 29.1187C20.4321 32.8099 25.8376 33.2902 26.0664 33.3089C26.5909 33.3496 27.0643 33.006 27.1851 32.4961C27.2204 32.3465 27.7738 29.9292 27.3343 27.2403C30.8761 29.3741 33.3783 30.5024 33.5049 30.559C33.6457 30.622 33.793 30.6518 33.938 30.6518C34.3434 30.6518 34.7306 30.4181 34.9072 30.024C35.1466 29.489 34.907 28.8611 34.3721 28.6217ZM30.167 16.0029C29.44 17.319 27.8118 19.7467 25.351 20.5461C24.5623 20.8023 23.6738 20.891 22.7121 20.8099C22.2199 20.7705 21.7659 21.071 21.6138 21.5394C21.5781 21.6491 21.562 21.7612 21.5626 21.8719L21.3433 20.5937L23.779 18.2197C24.0682 17.9377 24.1722 17.5159 24.0474 17.1318C23.9226 16.7475 23.5906 16.4677 23.1908 16.4097L21.683 16.1905C22.3011 15.7168 22.9436 15.3681 23.5991 15.1552C26.0485 14.3595 28.8024 15.3674 30.167 16.0029ZM19.1572 20.4027L19.463 22.186L17.8617 21.344C17.707 21.2628 17.5376 21.2222 17.3679 21.2222C17.1983 21.2222 17.0286 21.2628 16.8741 21.344L15.2731 22.186L15.5789 20.4027C15.6379 20.0585 15.5237 19.7074 15.2737 19.4634L13.9781 18.2007L15.7685 17.9405C16.1141 17.8904 16.4129 17.6731 16.5674 17.36L17.3679 15.7376L18.1686 17.36C18.3232 17.6733 18.6219 17.8903 18.9675 17.9405L20.7578 18.2007L19.4623 19.4634C19.2123 19.7074 19.0981 20.0585 19.1572 20.4027ZM17.3695 6.7026C18.3965 7.80064 20.2019 10.0994 20.2019 12.6873C20.2019 13.5168 20.0118 14.3889 19.637 15.2795C19.6152 15.3312 19.5991 15.3839 19.5861 15.4367L18.3195 12.8702C18.1407 12.508 17.7718 12.2787 17.3679 12.2787C16.964 12.2787 16.5951 12.508 16.4163 12.8702L15.1496 15.4373C15.1339 15.3729 15.1137 15.3094 15.0858 15.2484C14.7195 14.3685 14.5339 13.507 14.5339 12.6873C14.5339 10.1115 16.3433 7.80403 17.3695 6.7026ZM9.38507 20.5462C6.93573 19.7505 5.30034 17.3166 4.56972 16C5.93149 15.3627 8.67568 14.3558 11.1369 15.1554C11.7925 15.3685 12.4351 15.717 13.0533 16.1905L11.5452 16.4097C11.1455 16.4677 10.8133 16.7477 10.6885 17.1318C10.5638 17.5159 10.6679 17.9376 10.9569 18.2197L13.3927 20.5937L13.1745 21.8662C13.1741 21.3327 12.777 20.8804 12.2454 20.8139C12.1646 20.8041 12.0837 20.8034 12.0038 20.8113C11.0492 20.8903 10.168 20.8007 9.38507 20.5462ZM25.2766 31.0483C23.8004 30.7635 20.9884 29.9651 19.4672 27.8712C18.9865 27.2093 18.6308 26.4057 18.4101 25.4821C18.3349 25.0954 18.0462 24.7672 17.6414 24.6592C17.0872 24.5122 16.5161 24.8313 16.3514 25.3804C16.3439 25.4054 16.3372 25.4304 16.3317 25.4559C16.1111 26.3908 15.7535 27.2034 15.2683 27.8712C13.7552 29.9539 10.9374 30.7574 9.45878 31.0459C9.27599 29.5497 9.16959 26.6219 10.6826 24.5397C11.1635 23.8775 11.8187 23.2905 12.6304 22.7946C12.8563 22.6686 13.0285 22.4617 13.1144 22.2151L12.8174 23.9464C12.7491 24.3446 12.9129 24.7468 13.2396 24.9844C13.5664 25.2215 13.9996 25.2527 14.357 25.065L17.3673 23.4821L20.3779 25.065C20.5333 25.1466 20.7028 25.1868 20.8716 25.1868C20.8727 25.1868 20.8737 25.1868 20.8747 25.1868C21.4607 25.1867 21.9355 24.7117 21.9355 24.1257C21.9355 24.0367 21.9246 23.9504 21.904 23.8678L21.6206 22.2158C21.6998 22.4431 21.8552 22.6435 22.0729 22.7753C22.899 23.2751 23.5651 23.8688 24.0527 24.5397C25.5672 26.6234 25.4596 29.5539 25.2766 31.0483Z" fill="black"/>
</g>
<defs>
<clipPath id="clip0">
<rect width="35" height="35" fill="white"/>
</clipPath>
</defs>
</svg>
